<svg data-logo="logo" xmlns="http://www.w3.org/2000/svg" viewBox="0 0 191 45">
        <g style="opacity: 1;" id="logogram" transform="translate(0, 1) rotate(0)"><path d="M37.5 27.0752C37.5 20.4478 32.1274 15.0752 25.5 15.0752H15.5V27.0752H25.5V42.0752H37.5V27.0752Z" fill="#664D42"></path><path d="M0.5 28.0752C0.500001 35.8072 6.76801 42.0752 14.5 42.0752L22.5 42.0752L22.5 30.0752H14.5C13.3954 30.0752 12.5 29.1798 12.5 28.0752V27.0752L0.5 27.0752L0.5 28.0752Z" fill="#493127"></path><path d="M25.5 0.0751953C40.4117 0.0751953 52.5 12.1635 52.5 27.0752V42.0752H40.5V27.0752C40.5 18.7909 33.7843 12.0752 25.5 12.0752H14.5C13.3954 12.0752 12.5 12.9706 12.5 14.0752V15.0752H0.500001V14.0752C0.500002 6.34321 6.76802 0.0751953 14.5 0.0751953H25.5Z" fill="#493127"></path></g>
        <g style="opacity: 1;" id="logotype" transform="translate(59, 10)"><path fill="#ffffff" d="M22.17 25.49L22.17 25.49Q20 25.49 18.29 24.98Q16.57 24.48 15.38 23.60Q14.19 22.73 13.49 21.64L13.49 21.64L14.05 20.45L14.05 25L7.65 25L7.65 0.01L14.05 0.01L14.05 11.56L13.49 10.37Q14.19 9.28 15.38 8.41Q16.57 7.53 18.29 7.03Q20 6.52 22.17 6.52L22.17 6.52Q24.76 6.52 26.98 7.57Q29.21 8.62 30.57 10.70Q31.94 12.78 31.94 15.97L31.94 15.97Q31.94 17.86 31.41 19.38Q30.89 20.91 29.98 22.06Q29.07 23.21 27.84 23.97Q26.62 24.72 25.16 25.11Q23.71 25.49 22.17 25.49ZM19.76 20.98L19.76 20.98Q20.84 20.98 21.73 20.73Q22.63 20.48 23.31 20.01Q23.99 19.54 24.46 18.93Q24.94 18.31 25.16 17.56Q25.39 16.81 25.39 16.00L25.39 16.00Q25.39 14.60 24.73 13.48Q24.06 12.36 22.82 11.70Q21.58 11.03 19.76 11.03L19.76 11.03Q18.67 11.03 17.74 11.28Q16.82 11.52 16.12 12.00Q15.42 12.47 14.96 13.08Q14.51 13.69 14.26 14.43Q14.02 15.16 14.02 16.00L14.02 16.00Q14.02 17.34 14.68 18.47Q15.35 19.61 16.64 20.29Q17.94 20.98 19.76 20.98ZM40.97 25L34.56 25L34.56 0.01L40.97 0.01L40.97 25ZM55.81 25.49L55.81 25.49Q51.96 25.49 49.23 24.30Q46.50 23.11 45.06 20.98Q43.63 18.84 43.63 16.00L43.63 16.00Q43.63 14.29 44.15 12.84Q44.68 11.38 45.69 10.21Q46.71 9.04 48.18 8.22Q49.65 7.39 51.55 6.96Q53.46 6.52 55.81 6.52L55.81 6.52Q59.69 6.52 62.40 7.71Q65.12 8.90 66.55 11.03Q67.99 13.17 67.99 16.00L67.99 16.00Q67.99 17.68 67.46 19.16Q66.94 20.63 65.94 21.80Q64.94 22.97 63.45 23.79Q61.97 24.61 60.04 25.05Q58.12 25.49 55.81 25.49ZM55.81 20.98L55.81 20.98Q56.96 20.98 57.87 20.73Q58.78 20.48 59.45 20.01Q60.11 19.54 60.55 18.91Q60.99 18.28 61.20 17.54Q61.41 16.81 61.41 16.00L61.41 16.00Q61.41 14.64 60.81 13.52Q60.22 12.40 58.97 11.72Q57.73 11.03 55.81 11.03L55.81 11.03Q54.65 11.03 53.74 11.28Q52.83 11.52 52.17 12.00Q51.50 12.47 51.05 13.08Q50.59 13.69 50.38 14.45Q50.17 15.20 50.17 16.00L50.17 16.00Q50.17 17.34 50.78 18.47Q51.40 19.61 52.64 20.29Q53.88 20.98 55.81 20.98ZM82.09 25.49L82.09 25.49Q78.24 25.49 75.51 24.30Q72.78 23.11 71.35 20.98Q69.91 18.84 69.91 16.00L69.91 16.00Q69.91 14.29 70.44 12.84Q70.96 11.38 71.98 10.21Q72.99 9.04 74.46 8.22Q75.93 7.39 77.84 6.96Q79.75 6.52 82.09 6.52L82.09 6.52Q85.98 6.52 88.69 7.71Q91.40 8.90 92.84 11.03Q94.27 13.17 94.27 16.00L94.27 16.00Q94.27 17.68 93.75 19.16Q93.22 20.63 92.22 21.80Q91.23 22.97 89.74 23.79Q88.25 24.61 86.33 25.05Q84.40 25.49 82.09 25.49ZM82.09 20.98L82.09 20.98Q83.25 20.98 84.16 20.73Q85.07 20.48 85.73 20.01Q86.40 19.54 86.83 18.91Q87.27 18.28 87.48 17.54Q87.69 16.81 87.69 16.00L87.69 16.00Q87.69 14.64 87.10 13.52Q86.50 12.40 85.26 11.72Q84.02 11.03 82.09 11.03L82.09 11.03Q80.94 11.03 80.03 11.28Q79.12 11.52 78.45 12.00Q77.79 12.47 77.33 13.08Q76.88 13.69 76.67 14.45Q76.46 15.20 76.46 16.00L76.46 16.00Q76.46 17.34 77.07 18.47Q77.68 19.61 78.92 20.29Q80.17 20.98 82.09 20.98ZM103.30 25L96.90 25L96.90 7.01L103.30 7.01L103.30 11.98L102.67 11.42Q103.30 9.60 104.49 8.53Q105.68 7.46 107.15 6.99Q108.62 6.52 110.06 6.52L110.06 6.52Q111.74 6.52 113.14 7.03Q114.53 7.53 115.48 8.65Q116.43 9.77 116.74 11.52L116.74 11.52L115.83 11.42Q116.32 9.67 117.51 8.58Q118.70 7.50 120.28 7.01Q121.85 6.52 123.43 6.52L123.43 6.52Q125.74 6.52 127.34 7.52Q128.96 8.51 129.81 10.32Q130.67 12.12 130.67 14.64L130.67 14.64L130.67 25L124.27 25L124.27 15.55Q124.27 14.04 123.86 13.10Q123.46 12.15 122.73 11.72Q121.99 11.28 120.98 11.28L120.98 11.28Q119.86 11.28 118.95 11.80Q118.04 12.33 117.51 13.34Q116.99 14.36 116.99 15.86L116.99 15.86L116.99 25L110.58 25L110.58 15.55Q110.58 13.27 109.67 12.28Q108.76 11.28 107.29 11.28L107.29 11.28Q106.14 11.28 105.24 11.80Q104.35 12.33 103.83 13.34Q103.30 14.36 103.30 15.86L103.30 15.86L103.30 25Z"></path></g>
        
      </svg>